<?xml version="1.0" encoding="UTF-8"?>
<svg width="1275px" height="857px" viewBox="0 0 1275 857" version="1.1" xmlns="http://www.w3.org/2000/svg" xmlns:xlink="http://www.w3.org/1999/xlink">
    <!-- Generator: Sketch 43 (38999) - http://www.bohemiancoding.com/sketch -->
    <title>IPad</title>
    <desc>Created with Sketch.</desc>
    <defs>
        <rect id="path-1" x="-6.123234e-17" y="0" width="1275" height="857" rx="55"></rect>
        <rect id="path-2" x="0" y="0" width="1024" height="768"></rect>
        <linearGradient x1="12.932145%" y1="5.94848795%" x2="80.3301094%" y2="100%" id="linearGradient-3">
            <stop stop-color="#2C2B2B" offset="0%"></stop>
            <stop stop-color="#1B1B1B" offset="100%"></stop>
        </linearGradient>
        <radialGradient cx="50%" cy="0%" fx="50%" fy="0%" r="100%" id="radialGradient-4">
            <stop stop-color="#0F1DEB" offset="0%"></stop>
            <stop stop-color="#000000" offset="100%"></stop>
        </radialGradient>
    </defs>
    <g id="Device-mockups" stroke="none" stroke-width="1" fill="none" fill-rule="evenodd">
        <g id="IPad">
            <g transform="translate(637.500000, 428.500000) rotate(90.000000) translate(-637.500000, -428.500000) translate(209.000000, -209.000000)">
                <g id="iPad-Body" transform="translate(428.500000, 637.500000) rotate(90.000000) translate(-428.500000, -637.500000) translate(-209.000000, 209.000000)">
                    <g>
                        <use fill="#0F0F13" fill-rule="evenodd" xlink:href="#path-1"></use>
                        <rect stroke="#7E7E7E" stroke-width="5" x="2.5" y="2.5" width="1270" height="852" rx="55"></rect>
                    </g>
                    <path d="M7.04950151,827.811718 C7.04950151,827.811718 8.6562483,831.147507 10.6860843,833.963715 C12.7159204,836.779924 15.1881882,839.103388 15.1881882,839.103388 C15.1881882,839.103388 22.8229803,844.011009 23.3671039,842.677584 C23.9112275,841.344159 18.7987137,836.816825 14.6593589,831.59557 C10.5200041,826.374316 7.66978639,821.853509 6.34109641,821.201503 C5.01240643,820.549497 7.04950151,827.811718 7.04950151,827.811718 Z" id="Path-2" stroke="#C4C4C4" fill="#FFFFFF"></path>
                    <path d="M9.12871026,16.0128082 C10.1954167,19.3688563 11.1849108,19.1231107 13.2147469,21.9393192 C15.2445829,24.7555277 19.0932588,27.7383422 19.0932588,27.7383422 C19.0932588,27.7383422 25.9318379,32.904118 26.4759615,31.570693 C27.0200851,30.2372681 21.9075713,25.7099336 17.7682165,20.488679 C13.6288617,15.2674244 10.778644,10.7466175 9.44995403,10.0946117 C8.12126405,9.442606 8.06200378,12.65676 9.12871026,16.0128082 Z" id="Path-2" stroke="#C4C4C4" fill="#FFFFFF" transform="translate(17.450685, 20.900190) scale(1, -1) translate(-17.450685, -20.900190) "></path>
                    <path d="M1254.46559,20.9757759 C1255.38958,23.9290446 1257.09866,25.8548937 1258.95162,28.0562617 C1260.80458,30.2576297 1263.2579,32.4358876 1263.2579,32.4358876 C1263.2579,32.4358876 1268.50028,36.9797943 1268.9716,35.8064017 C1269.44293,34.633009 1263.94113,29.3907458 1260.35558,24.7961253 C1256.77003,20.2015048 1254.61798,14.8786689 1253.46705,14.3049143 C1252.31613,13.7311597 1253.5416,18.0225072 1254.46559,20.9757759 Z" id="Path-2" stroke="#C4C4C4" fill="#FFFFFF" transform="translate(1261.000000, 25.126408) scale(-1, -1) translate(-1261.000000, -25.126408) "></path>
                    <path d="M1252.72162,827.779703 C1253.6805,830.664769 1255.48907,832.738321 1257.41199,834.888852 C1259.33491,837.039382 1261.9196,839.102623 1261.9196,839.102623 C1261.9196,839.102623 1268.4799,843.875823 1268.96902,842.729528 C1269.45814,841.583233 1264.04897,837.665501 1260.32805,833.176987 C1256.60712,828.688474 1253.24992,822.621783 1252.05554,822.061278 C1250.86116,821.500774 1251.76275,824.894636 1252.72162,827.779703 Z" id="Path-2" stroke="#C4C4C4" fill="#FFFFFF" transform="translate(1260.242006, 832.453636) scale(-1, 1) translate(-1260.242006, -832.453636) "></path>
                </g>
                <g id="Screen-Frame" transform="translate(428.000000, 637.000000) rotate(90.000000) translate(-428.000000, -637.000000) translate(-84.000000, 253.000000)" stroke-linejoin="round">
                    <g>
                        <use fill="#FFFFFF" fill-rule="evenodd" xlink:href="#path-2"></use>
                        <rect stroke="#000000" stroke-width="2" x="-1" y="-1" width="1026" height="770"></rect>
                    </g>
                </g>
                <circle id="Oval" fill="url(#linearGradient-3)" cx="429" cy="1212" r="34"></circle>
                <circle id="Oval-2" fill="#0F0F13" cx="429" cy="1212" r="29"></circle>
                <path d="M442.613037,1240.62457 C442.613037,1240.28222 444.752093,1237.87168 447.366489,1235.26771 C464.468307,1218.23417 460.70415,1193.51449 439.415984,1183.05555 L433.904993,1180.34801 C435.803827,1180.34476 437.945586,1180.75974 439.889521,1181.26819 C458.801893,1186.21425 468.420858,1208.57288 459.647474,1227.19395 C456.782287,1233.27505 447.780931,1241.18179 443.664008,1241.23368 L442.613037,1241.24693 L442.613037,1240.62457 Z" id="Path" fill="#333334"></path>
                <path d="M415.88835,1242.97909 C409.190062,1240.66947 402.015714,1234.36394 398.73134,1227.89978 C395.583652,1221.70468 394.889291,1218.83916 394.878961,1212.00136 C394.869052,1205.45265 394.89944,1205.30763 397.271151,1200.59035 C398.592372,1197.96247 400.133335,1195.5299 400.695515,1195.18468 L401.717719,1194.55696 C402.402231,1195.24432 402.077391,1197.40554 401.43744,1199.80313 C400.555946,1203.10571 400.275547,1206.13555 400.280531,1212.30286 C400.287077,1220.44332 400.287137,1220.44344 402.48739,1224.97517 C406.044416,1232.30128 412.411918,1238.03193 420.722215,1241.38627 C422.639967,1242.16034 424.318697,1243.12403 424.452741,1243.52776 L424.696506,1244.26194 C420.66276,1244.23065 417.87018,1243.66247 415.88835,1242.97909 Z" id="Path" fill="#47474A"></path>
                <path d="M411.351999,1239.62864 C404.723556,1236.34909 398.779505,1228.51647 396.137544,1219.58019 C394.93193,1215.50239 394.886468,1208.43509 396.044638,1205.13915 C396.89076,1202.73118 398.741429,1199.69766 399.387987,1199.65877 L399.703158,1199.63984 C399.673911,1220.64895 399.731624,1221.16952 401.241839,1224.36289 C403.544907,1229.23269 407.790289,1234.68252 411.620447,1237.68612 C413.472378,1239.13834 414.987517,1240.53366 414.987517,1240.78673 L414.987517,1241.24693 C414.704836,1241.24693 413.150901,1240.51872 411.351999,1239.62864 Z" id="Path" fill="#545455"></path>
                <path d="M446.216366,1238.47932 C446.216366,1238.28375 447.585451,1236.5878 449.258717,1234.71056 C453.12683,1230.37112 457.319363,1221.83149 458.486121,1215.91581 C460.046602,1208.00383 457.779268,1198.77815 452.448323,1191.34857 L451.474824,1189.99181 C452.446702,1189.99181 453.720118,1191.14505 454.931677,1192.55457 C462.492662,1201.35109 464.419962,1216.01066 459.379926,1226.38956 C456.81874,1231.66376 449.754655,1238.73423 446.96706,1238.81358 L446.216366,1238.83492 L446.216366,1238.47932 Z" id="Path" fill="#545455"></path>
                <path d="M451.586347,1233.25716 C454.256594,1229.18168 456.697849,1223.85971 458.570559,1218.03138 L460.508069,1212.00136 C461.852831,1215.3391 460.898369,1222.17701 459.157061,1225.81283 C457.414311,1229.45175 452.457872,1235.21692 451.072212,1235.21692 L450.302301,1235.21692 L451.586347,1233.25716 Z" id="Path" fill="#707071"></path>
                <path d="M403.034135,1231.27128 C400.86397,1228.78949 397.819818,1222.96094 396.618708,1218.98768 C395.882757,1216.55308 395.975349,1209.86634 396.697516,1205.88856 C397.419684,1201.91078 398.308233,1202.69868 398.308233,1202.69868 C398.308233,1202.69868 398.529815,1202.81783 398.553951,1203.15799 C398.56697,1203.34146 398.441051,1210.20506 399.42254,1216.8644 C400.404028,1223.52374 402.048201,1227.90594 403.863741,1230.84516 L406.66988,1234.76356 C406.248111,1234.76356 404.061744,1232.44644 403.034135,1231.27128 Z" id="Path" fill="#707071"></path>
                <path d="M456.198067,1226.02115 C456.576156,1225.11815 457.896397,1221.80236 458.493416,1220.19009 C459.090435,1218.57782 460.271542,1215.01521 460.271542,1215.01521 C460.60467,1217.61589 460.273792,1221.50943 459.736776,1223.13297 C458.72352,1226.19597 455.628201,1230.99591 454.666172,1230.99591 L454.115223,1230.99591 L456.198067,1226.02115 Z" id="Path" fill="#EBEBEB"></path>
                <path d="M396.670078,1211.80996 C396.739701,1210.46786 396.91062,1208.24687 397.205158,1206.63404 C397.499696,1205.02121 397.74739,1204.72002 397.843344,1204.59264 C398.077861,1204.28131 398.133788,1204.76535 398.133788,1204.76535 L398.171983,1219.53888 C398.171983,1219.53888 398.069844,1219.70755 397.942891,1219.70755 C397.815938,1219.70755 397.688897,1219.53888 397.688897,1219.53888 C397.688897,1219.53888 397.252375,1218.50364 397.036007,1217.27136 C396.81964,1216.03908 396.600381,1213.15351 396.670078,1211.80996 Z" id="Path" fill="#EBEBEB"></path>
                <g id="Camera" transform="translate(423.000000, 50.000000)">
                    <path d="M5.67026352,12.0554052 L4.30718433,11.548884 L5.06778696,8.50613915 L1.33425798,8.50613915 C1.33425798,6.12307776 1.74659889,4.63064939 2.25052441,3.65197817 C2.95683689,2.28075307 3.58039293,1.87312415 4.97187836,1.87312415 L6.77696588,1.87312415 L7.49408835,3.74966439 C5.51279806,5.60329059 4.93758669,6.39261937 4.93758669,6.69954707 C4.93758669,7.71500136 6.99136394,8.38192087 8.43419681,7.83499864 L9.82886519,7.30676944 C9.65854785,5.19867667 9.63896976,4.34965075 9.67554355,4.0608131 L9.74202497,3.53439291 C11.9985495,5.41455116 12.3726951,8.36744884 11.3284505,9.96781446 C10.1756255,11.7346085 7.48213731,12.7283547 5.67026352,12.0554052 Z" id="Path" fill="#545455"></path>
                    <path d="M3.06852602,11.1259046 C0.954001351,9.87454606 0,8.36870559 0,6.28232831 C0,2.94646364 1.95581362,0.716472489 5.43820291,0.0826067445 C7.55055874,-0.302390678 9.43513795,0.659401182 11.0493348,2.94599584 C11.9684901,4.24834435 12.1274904,4.94302378 11.9182212,6.74498013 C11.41264,11.0987724 6.84394998,13.3605738 3.06852602,11.1259046 Z" id="Path" fill="url(#radialGradient-4)" opacity="0.604336504"></path>
                </g>
                <g id="Home-Button" transform="translate(394.000000, 1178.000000)"></g>
                <rect id="Rectangle-3" fill="#8D8D8D" transform="translate(425.000000, 2.500000) scale(1, -1) translate(-425.000000, -2.500000) " x="76" y="0" width="698" height="5"></rect>
                <rect id="Rectangle-3" fill="#9A9A9A" transform="translate(428.500000, 2.500000) scale(1, -1) translate(-428.500000, -2.500000) " x="159" y="0" width="539" height="5"></rect>
                <rect id="Rectangle-3" fill="#8D8D8D" transform="translate(425.000000, 1272.500000) scale(1, -1) translate(-425.000000, -1272.500000) " x="76" y="1270" width="698" height="5"></rect>
                <rect id="Rectangle-3" fill="#9A9A9A" transform="translate(428.500000, 1272.500000) scale(1, -1) translate(-428.500000, -1272.500000) " x="159" y="1270" width="539" height="5"></rect>
                <rect id="Rectangle" fill="#A0A0A0" x="852" y="160" width="5" height="959"></rect>
                <rect id="Rectangle" fill="#8C8C8C" x="0" y="134" width="5" height="959"></rect>
            </g>
        </g>
    </g>
</svg>