<?xml version="1.0" encoding="UTF-8"?>
<svg width="121px" height="92px" viewBox="0 0 121 92" version="1.1" xmlns="http://www.w3.org/2000/svg" xmlns:xlink="http://www.w3.org/1999/xlink">
    <!-- Generator: Sketch 43 (38999) - http://www.bohemiancoding.com/sketch -->
    <title>Pigeon</title>
    <desc>Created with Sketch.</desc>
    <defs></defs>
    <g id="Page-1" stroke="none" stroke-width="1" fill="none" fill-rule="evenodd">
        <g id="Desktop-HD" transform="translate(-1111.000000, -2316.000000)">
            <g id="Contact" transform="translate(0.000000, 2272.000000)">
                <g id="Pigeon" transform="translate(1111.000000, 44.000000)">
                    <g id="Envelope" transform="translate(15.500000, 22.000000) scale(-1, 1) translate(-15.500000, -22.000000) translate(0.000000, 9.000000)">
                        <polygon id="Path-5" fill="#A2AD4B" points="0.00489984153 5.17909608 26.3838806 0.0107467954 30.9885345 17.675222 5.4393175 25.9862692"></polygon>
                        <path d="M26.3038639,1.69449857 C26.3038639,1.69449857 26.3728213,1.86629307 26.3038639,2.15179957 C26.2349065,2.43730607 18.3921258,13.5161427 16.7992707,13.8581607 C15.2201259,14.1972349 1.93235162,7.70710156 1.65469647,7.58236504 C1.37704132,7.45762852 1.25888702,6.94827312 1.25888702,6.94827312 L26.3038639,1.69449857 Z" id="Path-7" fill="#0F0F0F"></path>
                        <path d="M0.00302633421,5.18151499 L26.3756859,0.0130149536 C26.3756859,0.0130149536 26.3557371,1.40519095 26.3082881,1.68795849 C26.2608391,1.97072604 18.321114,11.697499 17.081266,12.1024338 C15.841418,12.5073686 1.39945142,7.05865792 1.2621206,6.9485367 C1.12478978,6.83841549 0.00302633421,5.18151499 0.00302633421,5.18151499 Z" id="Path-6" fill="#E0EC7A"></path>
                    </g>
                    <path d="M75.0761023,70.8766356 C74.1520073,70.6095054 73.1148415,71.3092477 73.1148415,71.3092477 C73.1105115,72.1132051 72.8943769,72.7884611 72.5320173,73.50564 C72.4018147,73.7633734 71.5589952,77.4414298 71.3306627,77.9934501 C71.2169336,78.268407 71.0660915,79.3388817 71.0493586,79.9897824 C71.0260555,80.8958832 71.1270403,81.3206064 71.399616,81.4628829 C71.5541461,81.5435485 72.1550829,81.8646413 72.735025,82.1764409 C73.3149671,82.4882405 73.8989115,82.7453102 74.0326791,82.7477224 C74.1664468,82.7501345 75.0718952,83.1563785 75.3966229,83.1563785 C75.7213506,83.1563785 76.0937773,83.2111083 76.2242394,83.2779895 C76.3546878,83.344879 76.6458267,83.4813222 76.8712088,83.5811939 C77.4476404,83.8366349 78.0322677,84.4004391 78.0322677,84.7009215 C77.6965578,85.0846785 77.3637436,84.9957564 77.0760742,84.8409938 L76.553065,84.5596128 C75.8400928,85.2291042 74.655881,85.1790803 73.7591336,84.7155002 C73.3672011,84.5128987 71.8851572,84.1477461 71.766374,83.9767995 C71.6968496,83.8767425 69.6857583,83.7215986 68.1974154,83.9767995 C66.7090724,84.2320003 65.0445789,85.1025311 64.8294155,85.2215498 C64.2808766,85.5249813 63.9015928,85.6345841 63.400111,85.6345841 L62.7174903,85.6345841 C63.0383113,86.1578186 65.2417007,86.7691507 67.1262907,86.9688197 C67.2745283,86.9845253 67.920368,87.1990708 68.3340105,87.5212508 C68.7476531,87.8434307 69.290424,88.6019534 69.2413166,88.7309382 C68.6729441,88.9388582 68.4423032,88.8149452 68.3340105,88.6635021 C68.2257179,88.5120589 68.0349081,88.3881459 67.9100055,88.3881459 L67.5400101,88.9388582 C65.8006482,88.9388582 65.548835,88.8851624 65.3421255,88.676821 C65.1554682,88.4886812 62.446745,87.9812286 61.8748483,88.1820487 C61.7037588,88.2421286 59.9033144,88.4531695 58.3831965,88.9388582 C56.8630785,89.424547 56.076182,90.0431463 55.6423658,90.1565037 C54.6981871,90.4032202 51.4429248,91.1478164 50.8004631,90.6077604 C49.7105292,90.9944334 49.3728796,91.1282372 49.2668544,91.0872298 C49.0740913,89.7313306 50.4684275,88.6571496 51.6713256,88.6613515 C52.0104641,88.6625356 52.6251423,88.538774 53.0372773,88.3863313 C53.4494122,88.2338886 53.9803987,88.0944964 54.2172547,88.0765556 L54.647871,88.0439507 C54.5501508,87.8839026 54.3525932,87.8374335 54.1458017,87.8374335 C53.939024,87.8374335 52.994564,87.2867212 52.6929755,87.2867212 C52.4232683,87.2867212 50.8393107,86.7360088 50.5552747,86.7360088 L49.0742416,86.7360088 C48.4883302,86.7360088 48.3702984,86.6837916 48.0628909,86.288555 L47.7148737,85.8411012 C47.2890793,86.1078525 47.0090319,86.1852964 46.8178396,86.1852964 L46.4702049,86.1852964 C46.3372978,85.8361847 46.3600409,85.6368282 46.4350043,85.5170483 C46.608125,85.2404145 47.2930952,84.8317336 47.6056932,84.8185743 C47.6056932,84.8185743 48.1378474,84.5406656 48.8587048,84.5331594 C49.5795623,84.5256531 50.3260688,84.7881514 50.47579,84.8159694 C50.90377,84.8954882 51.1109439,84.8726405 51.2703641,84.7283483 C51.3889834,84.6209897 51.5528839,84.5331594 51.6346225,84.5331594 L51.8753988,84.2544507 C52.9352168,84.2619094 54.0857834,84.337035 54.9328605,84.5331594 C55.7799376,84.7292838 57.1332065,85.3592279 57.1332065,85.3592279 C58.585541,85.3592279 58.7373801,85.3115486 58.9063347,85.0494522 C59.2628071,84.496504 59.4553244,84.0926721 59.4553244,83.8978686 C58.1320586,83.6639824 57.5634812,83.6506965 57.3380992,83.6497562 C57.1127172,83.6488227 56.8091617,83.5374301 56.6635103,83.4022137 C56.3746935,83.134076 56.0324543,83.0847831 55.8287226,83.2819891 C55.7573516,83.3510718 55.4546157,83.4285157 55.1559913,83.4540867 L54.6130255,83.5005737 C54.5038996,82.9473914 55.066262,82.4353308 55.8889201,82.044738 C56.3736827,81.8145678 56.7469016,81.7614929 57.8354012,81.7679225 L59.182134,81.7758527 C59.182134,81.3430892 59.6287866,80.953529 59.9148169,80.953529 C60.3075963,80.953529 60.8652324,79.8536876 60.9189553,79.7995388 C61.0455517,79.6719525 61.3676568,77.8098839 61.3676568,77.8098839 C61.7664191,74.4149074 61.5851846,72.8182822 61.2954662,72.6548583 C61.1849198,72.5925039 61.0944664,72.4639814 61.0944664,72.3692588 C61.0944664,72.2326349 43.1963839,67.3970431 35.5765768,55.3447532 C31.0971597,48.2596351 29.6278448,41.4941809 29.7399304,33.6578854 C29.852016,25.82159 33.8077201,21.6149366 34.1961316,20.2065523 C35.1385688,16.7892644 34.5922762,16.2801957 34.5929405,16.1319584 C34.5942109,15.8494429 34.4426722,15.4517322 34.1961316,15.0905475 C33.9551125,14.7374643 32.8316224,13.1268163 30.5617438,12.5405325 C28.2918653,11.9542488 25.3574325,12.9941397 24.9323822,13.1882779 C24.6139106,13.3337348 22.54184,12.9421975 22.4955141,12.8913476 C22.4686642,12.8618756 22.0156786,13.2524874 21.6107536,13.4159562 C21.2058286,13.5794249 21.0247647,13.4453654 21.053944,13.4159562 C21.1390469,13.3301689 21.2086763,13.0941061 21.2086763,12.8913476 C21.2086763,12.6886028 21.3072816,12.4402315 21.4277995,12.3394099 C21.5483161,12.238602 21.6968811,12.0236727 21.7579419,11.8618046 C21.8245152,11.685311 22.7041536,11.1164304 23.5336526,10.5838259 C24.3631515,10.0512215 25.1753961,9.53441102 25.4561059,9.28374004 C26.0124225,8.78694242 26.8188435,8.21385738 27.2481526,8.01021771 C28.0287093,7.63994626 28.0287093,7.63994626 28.0335721,6.9252593 C28.0362493,6.53218835 28.5697491,4.26986198 28.7555595,4.26790695 C28.8580059,3.5678827 30.2534895,1.92630554 30.5617438,1.92630554 C30.6561994,1.92630554 30.8800925,1.8106284 31.0592508,1.66926054 C31.2082557,1.55168883 35.3700689,-0.477013894 38.4811468,0.104566585 C39.8644266,0.363154937 43.0083563,1.42577564 44.9194257,3.7024641 C46.8304951,5.97915257 47.8231496,11.3135578 49.2668544,13.4159562 C50.2097808,14.7890948 51.4306044,17.0940317 52.6929755,18.5071119 C53.9553466,19.9201921 57.1230652,22.3026628 57.2241379,22.3026628 C57.3198091,22.3026628 57.5997199,22.413948 57.8461786,22.549974 C58.0926236,22.6859999 58.5708706,22.8789282 58.9089437,22.9787035 C59.2470167,23.0784788 59.6465576,23.2064231 59.7968123,23.2630226 C60.0963958,23.3758749 64.844963,24.7370817 69.2413166,27.4086926 C73.6376702,30.0803035 80.4171784,35.757766 80.8324687,36.2551256 C80.9718535,36.4220467 83.8087574,38.7561798 86.83755,41.7885626 C89.8663426,44.8209454 94.2122474,49.6877078 96.3417179,52.0260088 C100.313338,56.3871136 106.850424,66.7699492 107.176461,67.8449448 C107.362379,68.4579436 107.031293,69.2459859 106.507415,69.6323829 C105.983537,70.0187799 105.261107,69.381091 105.10858,69.6323829 C104.956054,69.8836748 105.509274,70.7535005 110.740716,76.3985871 C115.972159,82.0436738 120.845901,86.2151882 120.962105,87.8776566 C121.017953,88.6766462 121.107009,88.6613515 120.436505,89.2544375 C119.766002,89.8475235 116.221769,88.3881459 116.221769,88.3881459 C116.221769,88.3881459 105.673668,81.383857 99.0132724,77.9934501 C92.3528769,74.6030432 90.2527173,71.8427604 84.1423534,70.118204 C78.0319895,68.3936475 75.479021,70.9931082 75.0761023,70.8766356 Z M67.7642857,80.470334 C68.0330367,80.2423942 68.1974154,79.9753537 68.1974154,79.7667026 C68.1974154,79.7667026 68.7933625,78.0256579 69.2413166,76.3985871 C69.6892708,74.7715164 70.0597072,72.6760543 70.2875947,72.1767573 L70.4288751,71.8671881 C70.3225357,71.7600058 69.9894894,71.7960774 69.620177,71.8782024 C69.2508646,71.9603274 68.6413497,72.0688039 68.2657129,72.1192492 C67.7397532,72.1898918 66.5276896,73.1022983 66.5276896,73.1022983 C66.6125633,73.3252353 65.3958013,75.5925307 64.5929163,77.4663783 C63.7900314,79.3402259 63.8263699,79.8482111 63.8263699,79.9209434 C63.8263699,80.1013154 63.5531795,80.6781729 63.5531795,80.6781729 C64.347139,80.693166 64.700579,80.7507705 64.8508337,80.8158509 C65.0010883,80.8809314 65.4159962,80.9385359 65.7728511,80.9438503 C65.7728511,80.9438503 67.4138918,80.7675122 67.7642857,80.470334 Z" id="Columbiformes" fill="#020202"></path>
                </g>
            </g>
        </g>
    </g>
</svg>