<?xml version="1.0" encoding="UTF-8"?>
<svg width="100px" height="92px" viewBox="0 0 100 92" version="1.1" xmlns="http://www.w3.org/2000/svg" xmlns:xlink="http://www.w3.org/1999/xlink">
    <!-- Generator: Sketch 43 (38999) - http://www.bohemiancoding.com/sketch -->
    <title>Columbiformes</title>
    <desc>Created with Sketch.</desc>
    <defs></defs>
    <g id="Page-1" stroke="none" stroke-width="1" fill="none" fill-rule="evenodd">
        <g id="Desktop-HD" transform="translate(-1132.000000, -1560.000000)" fill="#020202">
            <path d="M1186.0761,1630.87664 C1185.15201,1630.60951 1184.11484,1631.30925 1184.11484,1631.30925 C1184.11051,1632.11321 1183.89438,1632.78846 1183.53202,1633.50564 C1183.40181,1633.76337 1182.559,1637.44143 1182.33066,1637.99345 C1182.21693,1638.26841 1182.06609,1639.33888 1182.04936,1639.98978 C1182.02606,1640.89588 1182.12704,1641.32061 1182.39962,1641.46288 C1182.55415,1641.54355 1183.15508,1641.86464 1183.73503,1642.17644 C1184.31497,1642.48824 1184.89891,1642.74531 1185.03268,1642.74772 C1185.16645,1642.75013 1186.0719,1643.15638 1186.39662,1643.15638 C1186.72135,1643.15638 1187.09378,1643.21111 1187.22424,1643.27799 C1187.35469,1643.34488 1187.64583,1643.48132 1187.87121,1643.58119 C1188.44764,1643.83663 1189.03227,1644.40044 1189.03227,1644.70092 C1188.69656,1645.08468 1188.36374,1644.99576 1188.07607,1644.84099 L1187.55306,1644.55961 C1186.84009,1645.2291 1185.65588,1645.17908 1184.75913,1644.7155 C1184.3672,1644.5129 1182.88516,1644.14775 1182.76637,1643.9768 C1182.69685,1643.87674 1180.68576,1643.7216 1179.19742,1643.9768 C1177.70907,1644.232 1176.04458,1645.10253 1175.82942,1645.22155 C1175.28088,1645.52498 1174.90159,1645.63458 1174.40011,1645.63458 L1173.71749,1645.63458 C1174.03831,1646.15782 1176.2417,1646.76915 1178.12629,1646.96882 C1178.27453,1646.98453 1178.92037,1647.19907 1179.33401,1647.52125 C1179.74765,1647.84343 1180.29042,1648.60195 1180.24132,1648.73094 C1179.67294,1648.93886 1179.4423,1648.81495 1179.33401,1648.6635 C1179.22572,1648.51206 1179.03491,1648.38815 1178.91001,1648.38815 L1178.54001,1648.93886 C1176.80065,1648.93886 1176.54883,1648.88516 1176.34213,1648.67682 C1176.15547,1648.48868 1173.44674,1647.98123 1172.87485,1648.18205 C1172.70376,1648.24213 1170.90331,1648.45317 1169.3832,1648.93886 C1167.86308,1649.42455 1167.07618,1650.04315 1166.64237,1650.1565 C1165.69819,1650.40322 1162.44292,1651.14782 1161.80046,1650.60776 C1160.71053,1650.99443 1160.37288,1651.12824 1160.26685,1651.08723 C1160.07409,1649.73133 1161.46843,1648.65715 1162.67133,1648.66135 C1163.01046,1648.66254 1163.62514,1648.53877 1164.03728,1648.38633 C1164.44941,1648.23389 1164.9804,1648.0945 1165.21725,1648.07656 L1165.64787,1648.04395 C1165.55015,1647.8839 1165.35259,1647.83743 1165.1458,1647.83743 C1164.93902,1647.83743 1163.99456,1647.28672 1163.69298,1647.28672 C1163.42327,1647.28672 1161.83931,1646.73601 1161.55527,1646.73601 L1160.07424,1646.73601 C1159.48833,1646.73601 1159.3703,1646.68379 1159.06289,1646.28856 L1158.71487,1645.8411 C1158.28908,1646.10785 1158.00903,1646.1853 1157.81784,1646.1853 L1157.4702,1646.1853 C1157.3373,1645.83618 1157.36004,1645.63683 1157.435,1645.51705 C1157.60813,1645.24041 1158.2931,1644.83173 1158.60569,1644.81857 C1158.60569,1644.81857 1159.13785,1644.54067 1159.8587,1644.53316 C1160.57956,1644.52565 1161.32607,1644.78815 1161.47579,1644.81597 C1161.90377,1644.89549 1162.11094,1644.87264 1162.27036,1644.72835 C1162.38898,1644.62099 1162.55288,1644.53316 1162.63462,1644.53316 L1162.8754,1644.25445 C1163.93522,1644.26191 1165.08578,1644.33703 1165.93286,1644.53316 C1166.77994,1644.72928 1168.13321,1645.35923 1168.13321,1645.35923 C1169.58554,1645.35923 1169.73738,1645.31155 1169.90633,1645.04945 C1170.26281,1644.4965 1170.45532,1644.09267 1170.45532,1643.89787 C1169.13206,1643.66398 1168.56348,1643.6507 1168.3381,1643.64976 C1168.11272,1643.64882 1167.80916,1643.53743 1167.66351,1643.40221 C1167.37469,1643.13408 1167.03245,1643.08478 1166.82872,1643.28199 C1166.75735,1643.35107 1166.45462,1643.42852 1166.15599,1643.45409 L1165.61303,1643.50057 C1165.5039,1642.94739 1166.06626,1642.43533 1166.88892,1642.04474 C1167.37368,1641.81457 1167.7469,1641.76149 1168.8354,1641.76792 L1170.18213,1641.77585 C1170.18213,1641.34309 1170.62879,1640.95353 1170.91482,1640.95353 C1171.3076,1640.95353 1171.86523,1639.85369 1171.91896,1639.79954 C1172.04555,1639.67195 1172.36766,1637.80988 1172.36766,1637.80988 C1172.76642,1634.41491 1172.58518,1632.81828 1172.29547,1632.65486 C1172.18492,1632.5925 1172.09447,1632.46398 1172.09447,1632.36926 C1172.09447,1632.23263 1154.19638,1627.39704 1146.57658,1615.34475 C1142.09716,1608.25964 1140.62784,1601.49418 1140.73993,1593.65789 C1140.85202,1585.82159 1144.80772,1581.61494 1145.19613,1580.20655 C1146.13857,1576.78926 1145.59228,1576.2802 1145.59294,1576.13196 C1145.59421,1575.84944 1145.44267,1575.45173 1145.19613,1575.09055 C1144.95511,1574.73746 1143.83162,1573.12682 1141.56174,1572.54053 C1139.29187,1571.95425 1136.35743,1572.99414 1135.93238,1573.18828 C1135.61391,1573.33373 1134.33411,1573.7281 1133.77952,1573.7281 C1133.22493,1573.7281 1132.73319,1573.79006 1132.68676,1573.86578 C1132.64033,1573.9415 1132.4811,1574.00346 1132.33292,1574.00346 C1131.93618,1573.66901 1131.96884,1573.50173 1132.05394,1573.41596 C1132.13905,1573.33017 1132.20868,1573.09411 1132.20868,1572.89135 C1132.20868,1572.6886 1132.30728,1572.44023 1132.4278,1572.33941 C1132.54832,1572.2386 1132.69688,1572.02367 1132.75794,1571.8618 C1132.82452,1571.68531 1133.70415,1571.11643 1134.53365,1570.58383 C1135.36315,1570.05122 1136.1754,1569.53441 1136.45611,1569.28374 C1137.01242,1568.78694 1137.81884,1568.21386 1138.24815,1568.01022 C1139.02871,1567.63995 1139.02871,1567.63995 1139.03357,1566.92526 C1139.03625,1566.53219 1139.56975,1564.26986 1139.75556,1564.26791 C1139.85801,1563.56788 1141.25349,1561.92631 1141.56174,1561.92631 C1141.6562,1561.92631 1141.88009,1561.81063 1142.05925,1561.66926 C1142.20826,1561.55169 1146.37007,1559.52299 1149.48115,1560.10457 C1150.86443,1560.36315 1154.00836,1561.42578 1155.91943,1563.70246 C1157.8305,1565.97915 1158.82315,1571.31356 1160.26685,1573.41596 C1161.20978,1574.78909 1162.4306,1577.09403 1163.69298,1578.50711 C1164.95535,1579.92019 1168.12307,1582.30266 1168.22414,1582.30266 C1168.31981,1582.30266 1168.59972,1582.41395 1168.84618,1582.54997 C1169.09262,1582.686 1169.57087,1582.87893 1169.90894,1582.9787 C1170.24702,1583.07848 1170.64656,1583.20642 1170.79681,1583.26302 C1171.0964,1583.37587 1175.84496,1584.73708 1180.24132,1587.40869 C1184.63767,1590.0803 1191.41718,1595.75777 1191.83247,1596.25513 C1191.97185,1596.42205 1194.80876,1598.75618 1197.83755,1601.78856 C1200.86634,1604.82095 1205.21225,1609.68771 1207.34172,1612.02601 C1211.31334,1616.38711 1217.85042,1626.76995 1218.17646,1627.84494 C1218.36238,1628.45794 1218.03129,1629.24599 1217.50741,1629.63238 C1216.98354,1630.01878 1216.26111,1629.38109 1216.10858,1629.63238 C1215.95605,1629.88367 1216.50927,1630.7535 1221.74072,1636.39859 C1226.97216,1642.04367 1231.8459,1646.21519 1231.9621,1647.87766 C1232.01795,1648.67665 1232.10701,1648.66135 1231.43651,1649.25444 C1230.766,1649.84752 1227.22177,1648.38815 1227.22177,1648.38815 C1227.22177,1648.38815 1216.67367,1641.38386 1210.01327,1637.99345 C1203.35288,1634.60304 1201.25272,1631.84276 1195.14235,1630.1182 C1189.03199,1628.39365 1186.47902,1630.99311 1186.0761,1630.87664 Z M1178.76429,1640.47033 C1179.03304,1640.24239 1179.19742,1639.97535 1179.19742,1639.7667 C1179.19742,1639.7667 1179.79336,1638.02566 1180.24132,1636.39859 C1180.68927,1634.77152 1181.05971,1632.67605 1181.28759,1632.17676 L1181.42888,1631.86719 C1181.32254,1631.76001 1180.98949,1631.79608 1180.62018,1631.8782 C1180.25086,1631.96033 1179.64135,1632.0688 1179.26571,1632.11925 C1178.73975,1632.18989 1177.52769,1633.1023 1177.52769,1633.1023 C1177.61256,1633.32524 1176.3958,1635.59253 1175.59292,1637.46638 C1174.79003,1639.34023 1174.82637,1639.84821 1174.82637,1639.92094 C1174.82637,1640.10132 1174.55318,1640.67817 1174.55318,1640.67817 C1175.34714,1640.69317 1175.70058,1640.75077 1175.85083,1640.81585 C1176.00109,1640.88093 1176.416,1640.93854 1176.77285,1640.94385 C1176.77285,1640.94385 1178.41389,1640.76751 1178.76429,1640.47033 Z" id="Columbiformes"></path>
        </g>
    </g>
</svg>